# xmcd
#
# Track frame offsets:
#	150
#	15200
#	30205
#	44570
#	60755
#	79205
#	98567
#	111425
#	123092
#	137490
#	148927
#	160965
#
# Disc length: 2280 seconds
#
# Revision: 0
# Processed by: cddbd v1.5.2PL0 Copyright (c) Steve Scherf et al.
# Submitted via: EasyCDDAExtractor 16.0.6.1
#
DISCID=8d08e60c
DTITLE=Συλλογικός δίσκος - Παραδοσιακές πινελιές
DYEAR=1900
DGENRE=Παραδοσιακή
TTITLE0=Νίκα Έλσα-Φακίρης Γιάννης - Έχε γειά Παναγιά
TTITLE1=Παπαδάκης Σταμάτης - Μήλο μου κόκκινο
TTITLE2=Νίκα Έλσα - Θάλασσα
TTITLE3=Παπαδάκης Σταμάτης - Η τράτα μας
TTITLE4=Παπαδάκης Σταμάτης - Μέσ' στου Αιγαίου
TTITLE5=Παπαδάκης Σταμάτης - Βασιλικός θα γίνω
TTITLE6=Νίκα Έλσα - Λυγαριά
TTITLE7=Παπαδάκης Σταμάτης - Καραμπιπερίμ
TTITLE8=Σπυρόπουλος Στάθης - Ήσουνα τι ήσουνα
TTITLE9=Φακίρης Γιάννης-Νίκα Έλσα - Πέντε χρόνια δικασμένος
TTITLE10=Νίκα Έλσα - Ιτιά
TTITLE11=Νίκα Έλσα - Παραδοσιακός Απιράνθου
EXTD=
EXTT0=
EXTT1=
EXTT2=
EXTT3=
EXTT4=
EXTT5=
EXTT6=
EXTT7=
EXTT8=
EXTT9=
EXTT10=
EXTT11=
PLAYORDER=
